<?xml version="1.0" standalone="no"?>
<!DOCTYPE svg PUBLIC "-//W3C//DTD SVG 20010904//EN"
 "http://www.w3.org/TR/2001/REC-SVG-20010904/DTD/svg10.dtd">
<svg version="1.0" xmlns="http://www.w3.org/2000/svg"
 width="626.000000pt" height="418.000000pt" viewBox="0 0 626.000000 418.000000"
 preserveAspectRatio="xMidYMid meet">

<g transform="translate(0.000000,418.000000) scale(0.100000,-0.100000)"
fill="#000000" stroke="none">
<path d="M0 2978 l0 -1203 25 -12 c14 -6 23 -7 19 -2 -5 9 1 11 48 13 15 1 25
0 23 -3 -3 -2 3 -10 13 -17 31 -22 4 -27 -33 -6 -19 12 -35 18 -35 14 0 -13
68 -45 79 -37 6 3 14 -1 17 -10 4 -8 16 -21 28 -27 17 -9 15 -5 -7 17 -15 16
-25 35 -23 42 4 9 1 12 -7 7 -8 -5 -9 -4 -2 4 7 8 20 9 40 3 25 -8 26 -9 8
-10 -13 -1 -23 -5 -23 -10 0 -14 28 -33 38 -27 6 3 26 -1 46 -9 39 -16 56 -13
56 10 0 19 141 15 164 -4 9 -8 24 -11 34 -9 10 3 23 -1 30 -9 14 -14 47 -19
38 -5 -2 4 -1 14 5 22 6 10 9 11 9 3 0 -9 19 -14 58 -15 l57 -1 -60 -8 c-45
-5 -33 -6 51 -4 62 1 117 6 124 10 8 5 11 3 8 -6 -3 -8 -9 -13 -14 -12 -5 0
-15 -5 -22 -13 -19 -21 2 -17 44 8 21 12 35 18 32 12 -4 -5 -3 -16 3 -24 6
-11 9 -8 9 13 0 19 4 27 13 24 6 -2 11 -9 10 -15 -1 -5 8 -8 20 -5 21 5 21 4
-3 -17 -24 -21 10 -4 131 63 l36 21 60 -37 c64 -39 79 -45 67 -25 -5 7 -3 8 5
4 7 -5 10 -10 7 -13 -7 -7 154 -110 203 -130 20 -8 33 -12 29 -7 -4 4 -3 13 3
21 6 7 8 13 3 13 -5 0 -3 4 4 8 14 9 -130 96 -159 96 -10 0 -16 3 -13 7 2 4
-32 28 -76 54 l-80 47 0 291 0 292 228 132 c125 72 238 136 252 143 24 10 46
0 270 -129 135 -78 250 -147 255 -155 15 -19 45 3 45 33 0 24 17 29 22 6 2
-11 12 -9 45 13 l43 27 2 219 3 219 265 154 c146 84 264 158 262 164 -1 6 2 8
7 4 10 -6 64 23 287 151 61 35 117 64 124 64 7 0 79 -38 160 -85 l148 -86 35
23 c20 13 36 26 37 30 0 9 -370 221 -386 221 -8 0 -14 4 -14 9 0 20 41 1 226
-106 l198 -115 31 19 c46 28 152 57 238 65 72 7 77 9 77 31 0 13 5 24 10 24 6
0 10 -11 10 -25 l0 -25 100 0 c82 0 100 3 100 15 0 11 -11 15 -37 15 -35 0
-36 1 -19 19 10 11 30 23 45 26 36 8 70 67 51 90 -16 19 -95 41 -177 50 l-63
6 0 -31 c0 -18 -4 -29 -10 -25 -5 3 -10 16 -10 29 0 22 -5 23 -172 39 -239 23
-594 55 -707 62 -52 4 -100 9 -107 12 -8 3 -27 -8 -43 -24 -33 -34 -61 -39
-53 -11 3 12 -1 18 -14 19 -11 0 -14 3 -6 6 6 2 12 14 12 26 l0 22 262 -3
c187 -3 272 0 293 8 28 11 28 13 10 20 -20 7 -57 71 -69 115 -9 36 -21 189
-19 248 l2 57 -289 0 c-160 0 -290 -3 -290 -7 0 -5 18 -96 40 -203 43 -213 45
-224 29 -215 -6 4 -8 13 -5 20 2 7 2 16 -2 19 -3 4 -7 13 -9 21 -7 35 -9 41
-17 53 -4 7 -5 16 -2 19 3 3 2 11 -3 17 -5 6 -16 47 -25 91 -9 44 -21 104 -27
133 l-12 52 -73 0 c-61 0 -75 -3 -83 -18 -7 -14 -6 -25 7 -43 l16 -24 -29 19
c-25 16 -28 17 -16 3 21 -26 4 -34 -18 -8 l-19 22 -26 -32 c-14 -17 -26 -35
-26 -41 0 -6 -3 -9 -6 -6 -7 7 24 70 40 80 6 4 7 8 1 8 -5 0 -19 -11 -31 -25
-21 -25 -21 -25 -39 -5 -10 11 -14 20 -9 20 6 0 10 9 11 19 2 24 -25 35 -45
19 -12 -10 -14 -10 -8 0 5 8 1 12 -12 12 -11 0 -25 -13 -36 -32 -15 -30 -15
-21 0 16 5 13 -149 15 -1185 16 l-1191 0 0 -1202z m2452 1170 c-7 -7 -12 -8
-12 -2 0 14 12 26 19 19 2 -3 -1 -11 -7 -17z m-42 -11 c-6 -7 -17 -21 -26 -32
-11 -15 -10 -10 2 17 10 20 21 35 26 32 4 -3 3 -10 -2 -17z m3 -42 c-3 -9 -8
-14 -10 -11 -3 3 -2 9 2 15 9 16 15 13 8 -4z m153 0 c-3 -8 -9 -22 -12 -30 -3
-8 -1 -15 5 -15 6 0 11 8 11 18 0 14 8 19 29 19 19 0 27 -5 24 -13 -2 -6 0
-15 6 -19 6 -3 11 -12 11 -18 0 -7 -4 -6 -10 3 -5 8 -12 11 -16 7 -4 -3 -2
-13 5 -21 9 -11 8 -15 -3 -19 -10 -4 -13 -1 -9 9 3 7 1 14 -5 14 -6 0 -12 -6
-15 -12 -3 -9 -12 -5 -26 12 -21 23 -23 23 -32 7 -6 -9 -15 -17 -20 -17 -6 0
-4 7 3 15 31 35 38 45 38 60 0 8 5 15 11 15 6 0 8 -7 5 -15z m69 -105 c3 -5 1
-10 -4 -10 -6 0 -11 5 -11 10 0 6 2 10 4 10 3 0 8 -4 11 -10z m55 -234 c0 -3
-4 -8 -10 -11 -5 -3 -10 -1 -10 4 0 6 5 11 10 11 6 0 10 -2 10 -4z m13 -31
c-3 -9 -8 -14 -10 -11 -3 3 -2 9 2 15 9 16 15 13 8 -4z m197 -5 c0 -5 -2 -10
-4 -10 -3 0 -8 5 -11 10 -3 6 -1 10 4 10 6 0 11 -4 11 -10z m25 -110 c3 -5 1
-10 -4 -10 -6 0 -11 5 -11 10 0 6 2 10 4 10 3 0 8 -4 11 -10z m-1671 -147 c83
-49 163 -95 177 -103 14 -8 58 -33 97 -55 l72 -40 0 -290 0 -291 -67 -39 c-38
-22 -77 -44 -88 -50 -11 -7 -54 -31 -95 -55 -223 -129 -259 -147 -267 -140 -4
4 -100 61 -213 125 -113 64 -222 128 -243 141 l-37 24 2 287 3 287 115 66 c63
37 174 101 245 143 72 42 134 76 139 76 5 1 77 -38 160 -86z m856 67 c0 -5 -4
-10 -10 -10 -5 0 -10 5 -10 10 0 6 5 10 10 10 6 0 10 -4 10 -10z m40 0 c0 -5
-4 -10 -10 -10 -5 0 -10 5 -10 10 0 6 5 10 10 10 6 0 10 -4 10 -10z m40 0 c0
-5 -4 -10 -10 -10 -5 0 -10 5 -10 10 0 6 5 10 10 10 6 0 10 -4 10 -10z m130 0
c0 -5 -4 -10 -10 -10 -5 0 -10 5 -10 10 0 6 5 10 10 10 6 0 10 -4 10 -10z m40
0 c0 -5 -4 -10 -10 -10 -5 0 -10 5 -10 10 0 6 5 10 10 10 6 0 10 -4 10 -10z
m40 0 c0 -5 -2 -10 -4 -10 -3 0 -8 5 -11 10 -3 6 -1 10 4 10 6 0 11 -4 11 -10z
m90 6 c0 -3 -4 -8 -10 -11 -5 -3 -10 -1 -10 4 0 6 5 11 10 11 6 0 10 -2 10 -4z
m40 -6 c0 -5 -4 -10 -10 -10 -5 0 -10 5 -10 10 0 6 5 10 10 10 6 0 10 -4 10
-10z m410 0 c0 -5 -2 -10 -4 -10 -3 0 -8 5 -11 10 -3 6 -1 10 4 10 6 0 11 -4
11 -10z m10 -40 c0 -5 -2 -10 -4 -10 -3 0 -8 5 -11 10 -3 6 -1 10 4 10 6 0 11
-4 11 -10z m-635 -10 c3 -5 1 -10 -4 -10 -6 0 -11 5 -11 10 0 6 2 10 4 10 3 0
8 -4 11 -10z m40 0 c3 -5 1 -10 -4 -10 -6 0 -11 5 -11 10 0 6 2 10 4 10 3 0 8
-4 11 -10z m45 -6 c0 -8 -5 -12 -10 -9 -6 4 -8 11 -5 16 9 14 15 11 15 -7z
m37 -6 c-3 -8 -6 -5 -6 6 -1 11 2 17 5 13 3 -3 4 -12 1 -19z m48 13 c3 -5 1
-12 -5 -16 -5 -3 -10 1 -10 9 0 18 6 21 15 7z m40 -1 c3 -5 1 -10 -4 -10 -6 0
-11 5 -11 10 0 6 2 10 4 10 3 0 8 -4 11 -10z m45 0 c0 -5 -4 -10 -10 -10 -5 0
-10 5 -10 10 0 6 5 10 10 10 6 0 10 -4 10 -10z m40 0 c0 -5 -4 -10 -10 -10 -5
0 -10 5 -10 10 0 6 5 10 10 10 6 0 10 -4 10 -10z m41 -3 c-1 -12 -15 -9 -19 4
-3 6 1 10 8 8 6 -3 11 -8 11 -12z m-541 -57 c0 -5 -4 -10 -10 -10 -5 0 -10 5
-10 10 0 6 5 10 10 10 6 0 10 -4 10 -10z m40 0 c0 -5 -4 -10 -10 -10 -5 0 -10
5 -10 10 0 6 5 10 10 10 6 0 10 -4 10 -10z m170 0 c0 -5 -4 -10 -10 -10 -5 0
-10 5 -10 10 0 6 5 10 10 10 6 0 10 -4 10 -10z m40 0 c0 -5 -4 -10 -10 -10 -5
0 -10 5 -10 10 0 6 5 10 10 10 6 0 10 -4 10 -10z m130 6 c0 -3 -4 -8 -10 -11
-5 -3 -10 -1 -10 4 0 6 5 11 10 11 6 0 10 -2 10 -4z m40 -6 c0 -5 -4 -10 -10
-10 -5 0 -10 5 -10 10 0 6 5 10 10 10 6 0 10 -4 10 -10z m40 0 c0 -5 -2 -10
-4 -10 -3 0 -8 5 -11 10 -3 6 -1 10 4 10 6 0 11 -4 11 -10z m40 0 c0 -5 -2
-10 -4 -10 -3 0 -8 5 -11 10 -3 6 -1 10 4 10 6 0 11 -4 11 -10z m-460 -50 c0
-5 -5 -10 -11 -10 -5 0 -7 5 -4 10 3 6 8 10 11 10 2 0 4 -4 4 -10z m165 0 c3
-5 1 -10 -4 -10 -6 0 -11 5 -11 10 0 6 2 10 4 10 3 0 8 -4 11 -10z m210 0 c3
-5 1 -10 -4 -10 -6 0 -11 5 -11 10 0 6 2 10 4 10 3 0 8 -4 11 -10z m45 0 c0
-5 -4 -10 -10 -10 -5 0 -10 5 -10 10 0 6 5 10 10 10 6 0 10 -4 10 -10z m40 -6
c0 -8 -4 -12 -10 -9 -5 3 -10 10 -10 16 0 5 5 9 10 9 6 0 10 -7 10 -16z m370
7 c0 -5 -76 -53 -169 -106 -132 -75 -168 -101 -164 -113 4 -13 3 -14 -5 -4 -7
11 -19 8 -56 -13 -26 -15 -51 -24 -54 -20 -4 4 0 10 8 15 223 128 275 161 273
169 -2 6 3 8 10 6 6 -3 41 12 77 34 70 42 80 46 80 32z m-660 -55 c0 -3 -4 -8
-10 -11 -5 -3 -10 -1 -10 4 0 6 5 11 10 11 6 0 10 -2 10 -4z m40 0 c0 -3 -4
-8 -10 -11 -5 -3 -10 -1 -10 4 0 6 5 11 10 11 6 0 10 -2 10 -4z m170 0 c0 -3
-4 -8 -10 -11 -5 -3 -10 -1 -10 4 0 6 5 11 10 11 6 0 10 -2 10 -4z m40 -6 c0
-5 -2 -10 -4 -10 -3 0 -8 5 -11 10 -3 6 -1 10 4 10 6 0 11 -4 11 -10z m-120
-247 c0 -5 -53 -38 -118 -74 l-117 -66 -3 -104 c-4 -147 -22 -153 -22 -7 l0
115 123 72 c122 70 137 78 137 64z m-1869 -434 c21 -18 21 -20 4 -14 -11 4
-28 10 -37 12 -10 3 -15 9 -12 14 8 14 20 11 45 -12z m-96 -35 c-34 -26 -55
-36 -55 -25 0 11 48 40 65 40 6 0 1 -7 -10 -15z m245 -49 c32 -16 38 -25 18
-25 -14 0 -68 39 -55 40 4 0 21 -7 37 -15z m-395 -35 c-9 -14 -65 -42 -65 -33
0 9 50 42 63 43 5 0 5 -5 2 -10z m506 -30 c13 -10 20 -19 16 -20 -11 0 -67 29
-67 35 0 12 30 3 51 -15z m-611 -28 c0 -4 -13 -16 -30 -25 -16 -10 -30 -14
-30 -8 0 6 12 17 28 25 32 18 32 18 32 8z m760 -57 c32 -16 38 -25 18 -25 -14
0 -68 39 -55 40 4 0 21 -7 37 -15z m-860 -5 c0 -5 -2 -10 -4 -10 -3 0 -8 5
-11 10 -3 6 -1 10 4 10 6 0 11 -4 11 -10z m-57 -32 c-4 -7 -6 -20 -5 -30 2 -9
-2 -19 -8 -23 -11 -7 -15 47 -3 58 11 12 24 7 16 -5z m797 -18 c0 -6 -113 -10
-320 -10 -207 0 -320 4 -320 10 0 6 113 10 320 10 207 0 320 -4 320 -10z m187
-34 c-4 -51 -17 -57 -17 -8 0 23 4 42 9 42 6 0 9 -15 8 -34z m-996 -101 c-9
-30 -9 -30 -10 10 -1 25 2 36 9 29 6 -6 6 -21 1 -39z m674 -7 c-27 -29 -54
-59 -61 -67 -10 -11 -16 -11 -35 3 -13 9 -27 16 -31 16 -5 0 -8 -29 -8 -65 0
-55 -3 -65 -17 -65 -16 0 -18 10 -18 72 0 70 -1 73 -25 76 -14 2 -20 -1 -14
-5 6 -4 15 -38 18 -75 7 -64 7 -68 -13 -68 -20 0 -21 6 -21 80 0 89 -3 92 -66
65 -34 -14 -37 -14 -70 11 -19 15 -34 31 -34 37 0 6 13 -1 28 -16 32 -30 42
-32 88 -15 37 13 108 1 172 -29 l36 -17 50 57 c28 31 55 57 60 57 5 0 -13 -24
-39 -52z m43 -80 c-3 -89 -5 -103 -20 -106 -16 -3 -18 6 -18 90 0 89 8 118 32
118 5 0 7 -46 6 -102z m-288 -29 c0 -71 -2 -80 -17 -77 -15 3 -19 16 -21 72
-3 66 4 85 31 86 4 0 7 -36 7 -81z m221 -72 c-32 -32 -45 79 -13 123 17 25 17
25 20 -44 2 -38 -1 -73 -7 -79z m336 81 c-2 -13 -4 -3 -4 22 0 25 2 35 4 23 2
-13 2 -33 0 -45z m-677 -18 c0 -47 -3 -60 -15 -60 -12 0 -15 13 -15 60 0 47 3
60 15 60 12 0 15 -13 15 -60z m60 0 c0 -55 -2 -60 -21 -60 -20 0 -21 4 -15 46
3 26 6 53 6 60 0 8 7 14 15 14 12 0 15 -13 15 -60z m-360 -45 c0 -19 -4 -35
-10 -35 -5 0 -10 16 -10 35 0 19 5 35 10 35 6 0 10 -16 10 -35z m990 -35 c0
-16 -4 -32 -10 -35 -6 -4 -10 10 -10 35 0 25 4 39 10 35 6 -3 10 -19 10 -35z
m-190 -30 c0 -6 -53 -10 -139 -10 l-140 0 30 -71 c32 -79 35 -99 16 -99 -7 0
-24 33 -37 73 l-25 72 -3 -102 c-2 -83 -6 -103 -17 -103 -12 0 -15 19 -16 103
l0 102 -27 -72 c-15 -40 -32 -73 -39 -73 -18 0 -17 9 16 94 l29 76 -144 0
c-89 0 -144 4 -144 10 0 6 113 10 320 10 207 0 320 -4 320 -10z m-800 -60 c0
-22 -4 -40 -10 -40 -5 0 -10 18 -10 40 0 22 5 40 10 40 6 0 10 -18 10 -40z
m985 0 c3 -5 1 -10 -4 -10 -6 0 -11 5 -11 10 0 6 2 10 4 10 3 0 8 -4 11 -10z
m5 -96 c0 -19 -4 -34 -10 -34 -5 0 -10 18 -10 41 0 24 4 38 10 34 6 -3 10 -22
10 -41z m-990 7 c0 -5 -7 -11 -14 -14 -10 -4 -13 -1 -9 9 6 15 23 19 23 5z
m940 -65 c0 -2 -14 -13 -32 -24 -40 -26 -60 -17 -21 9 26 17 53 25 53 15z
m280 -106 c8 -5 12 -11 9 -14 -3 -3 -14 1 -25 9 -21 16 -8 20 16 5z"/>
<path d="M2584 4061 c4 -5 0 -11 -6 -14 -7 -2 -10 -8 -6 -12 4 -4 14 -1 22 8
15 14 12 27 -6 27 -5 0 -7 -4 -4 -9z"/>
<path d="M1261 3144 c-28 -15 -57 -90 -37 -98 7 -3 7 -8 -3 -14 -12 -8 -8 -17
18 -50 43 -55 77 -54 127 1 30 32 35 44 30 69 -10 48 -31 83 -49 82 -9 -1 -17
4 -17 12 0 8 -5 14 -11 14 -5 0 -8 -4 -4 -9 3 -5 1 -12 -4 -16 -5 -3 -13 1
-18 8 -6 11 -13 11 -32 1z m9 -49 c0 -8 -4 -15 -10 -15 -5 0 -10 7 -10 15 0 8
5 15 10 15 6 0 10 -7 10 -15z m40 0 c0 -8 -4 -15 -10 -15 -5 0 -10 7 -10 15 0
8 5 15 10 15 6 0 10 -7 10 -15z m42 0 c0 -5 -5 -11 -11 -13 -6 -2 -11 4 -11
13 0 9 5 15 11 13 6 -2 11 -8 11 -13z m-82 -54 c0 -6 -4 -13 -10 -16 -5 -3
-10 1 -10 9 0 9 5 16 10 16 6 0 10 -4 10 -9z m0 -56 c0 -8 -4 -15 -10 -15 -5
0 -10 7 -10 15 0 8 5 15 10 15 6 0 10 -7 10 -15z m40 -1 c0 -8 -5 -12 -10 -9
-6 4 -8 11 -5 16 9 14 15 11 15 -7z"/>
<path d="M723 3090 c-1 -12 4 -20 14 -20 9 0 13 6 9 15 -3 9 0 15 9 15 9 0 12
-6 9 -15 -4 -10 0 -15 11 -15 11 0 15 5 11 15 -3 9 0 15 9 15 8 0 15 -7 15
-15 0 -10 10 -15 30 -15 20 0 30 5 30 15 0 8 5 15 10 15 6 0 10 -7 10 -15 0
-8 5 -15 10 -15 6 0 10 7 10 15 0 8 7 15 15 15 9 0 12 -6 9 -15 -5 -13 13 -15
129 -15 126 0 135 1 140 20 3 13 0 20 -9 20 -8 0 -13 -4 -12 -9 2 -5 -1 -9 -7
-9 -5 0 -9 4 -7 9 1 5 -5 9 -13 9 -8 0 -14 -5 -13 -11 2 -6 -3 -14 -11 -17
-10 -3 -12 0 -8 12 5 14 -2 16 -53 16 -49 0 -58 -3 -54 -15 4 -8 1 -15 -5 -15
-6 0 -11 7 -11 15 0 8 -7 15 -15 15 -9 0 -12 -6 -8 -16 4 -12 2 -15 -8 -12 -8
3 -13 11 -12 17 2 8 -33 11 -115 11 -111 0 -118 -1 -119 -20z m127 0 c0 -5 -4
-10 -10 -10 -5 0 -10 5 -10 10 0 6 5 10 10 10 6 0 10 -4 10 -10z m210 0 c0 -5
-4 -10 -10 -10 -5 0 -10 5 -10 10 0 6 5 10 10 10 6 0 10 -4 10 -10z m45 0 c-3
-5 -10 -10 -16 -10 -5 0 -9 5 -9 10 0 6 7 10 16 10 8 0 12 -4 9 -10z"/>
<path d="M1158 2858 c-46 -20 -65 -47 -45 -67 6 -6 17 -11 24 -11 7 0 12 -6
11 -12 -4 -18 94 -66 100 -50 5 17 22 15 22 -3 0 -8 5 -15 10 -15 6 0 10 7 10
15 0 8 5 15 10 15 6 0 10 -7 10 -15 0 -20 16 -19 24 2 6 13 9 14 15 4 20 -31
159 66 145 102 -3 8 -24 24 -47 33 -23 10 -46 20 -51 22 -5 3 -5 -1 -1 -7 5
-8 1 -11 -11 -9 -16 2 -21 -7 -28 -55 -10 -61 -29 -72 -34 -20 -3 25 -7 30
-23 26 -13 -4 -19 -14 -19 -35 0 -30 -24 -36 -26 -7 -4 48 -18 98 -26 93 -6
-4 -13 -2 -17 3 -4 6 -24 2 -53 -9z m29 -44 c-9 -9 -28 6 -21 18 4 6 10 6 17
-1 6 -6 8 -13 4 -17z m43 5 c0 -5 -4 -9 -10 -9 -5 0 -10 7 -10 16 0 8 5 12 10
9 6 -3 10 -10 10 -16z m167 -5 c-9 -9 -28 6 -21 18 4 6 10 6 17 -1 6 -6 8 -13
4 -17z m43 5 c0 -5 -4 -9 -10 -9 -5 0 -10 7 -10 16 0 8 5 12 10 9 6 -3 10 -10
10 -16z m-295 1 c-3 -5 -10 -10 -16 -10 -5 0 -9 5 -9 10 0 6 7 10 16 10 8 0
12 -4 9 -10z m335 0 c0 -5 -4 -10 -10 -10 -5 0 -10 5 -10 10 0 6 5 10 10 10 6
0 10 -4 10 -10z m-290 -56 c0 -9 -5 -14 -12 -12 -18 6 -21 28 -4 28 9 0 16 -7
16 -16z m40 7 c0 -6 -4 -13 -10 -16 -5 -3 -10 1 -10 9 0 9 5 16 10 16 6 0 10
-4 10 -9z m80 -6 c0 -8 -4 -15 -10 -15 -5 0 -10 7 -10 15 0 8 5 15 10 15 6 0
10 -7 10 -15z m90 6 c0 -6 -4 -13 -10 -16 -5 -3 -10 1 -10 9 0 9 5 16 10 16 6
0 10 -4 10 -9z m40 0 c0 -6 -4 -13 -10 -16 -5 -3 -10 1 -10 9 0 9 5 16 10 16
6 0 10 -4 10 -9z"/>
<path d="M1290 2845 c0 -8 5 -15 10 -15 6 0 10 7 10 15 0 8 -4 15 -10 15 -5 0
-10 -7 -10 -15z"/>
<path d="M2490 4176 c0 -2 8 -10 18 -17 15 -13 16 -12 3 4 -13 16 -21 21 -21
13z"/>
<path d="M3997 4148 c-3 -18 -17 -85 -31 -148 -14 -63 -31 -140 -38 -170 -6
-30 -17 -72 -24 -92 -12 -34 -11 -39 6 -48 10 -5 34 -10 54 -10 30 0 35 3 38
27 2 14 9 28 15 31 9 2 11 -5 7 -26 -6 -29 -6 -29 53 -35 56 -6 365 -23 544
-30 l85 -3 3 40 c1 22 7 46 13 53 13 16 48 17 48 2 0 -5 8 -9 18 -8 35 3 42
-2 42 -31 0 -16 4 -30 9 -30 20 0 41 13 35 21 -3 5 0 9 5 9 6 0 11 8 11 18 0
10 6 24 13 31 10 11 9 13 -5 8 -13 -5 -18 -1 -18 12 0 10 -7 22 -16 25 -10 4
-13 13 -9 26 4 14 2 20 -9 20 -9 0 -20 16 -27 41 -7 22 -21 45 -31 50 -10 5
-18 21 -18 35 0 14 -7 32 -15 40 -8 9 -18 27 -21 41 -4 14 -15 34 -24 43 -10
10 -24 34 -31 54 l-13 36 -332 0 -331 0 -6 -32z m538 -140 c28 -12 35 -34 8
-23 -10 4 -26 10 -35 12 -19 6 -25 23 -8 23 5 0 21 -5 35 -12z m-104 -49 c-13
-10 -30 -19 -39 -19 -18 0 -12 7 25 30 36 22 45 14 14 -11z m179 1 c0 -5 -4
-10 -10 -10 -5 0 -10 5 -10 10 0 6 5 10 10 10 6 0 10 -4 10 -10z m75 -29 c-2
-2 6 -12 18 -22 28 -24 5 -25 -34 -2 -35 21 -37 31 -5 29 13 0 23 -3 21 -5z
m110 -31 c3 -5 -3 -10 -14 -10 -12 0 -21 5 -21 10 0 6 6 10 14 10 8 0 18 -4
21 -10z m-495 -15 c0 -6 -56 -35 -67 -35 -14 1 39 40 53 40 8 0 14 -2 14 -5z
m493 -24 c34 -17 35 -31 3 -29 -14 1 -23 5 -20 9 2 4 -3 9 -11 13 -8 3 -15 10
-15 17 0 6 3 9 8 7 4 -2 19 -10 35 -17z m14 13 c-3 -3 -12 -4 -19 -1 -8 3 -5
6 6 6 11 1 17 -2 13 -5z m-637 -64 c-23 -18 -50 -26 -50 -15 0 6 53 34 65 34
6 0 -1 -8 -15 -19z m665 0 c3 -5 -1 -10 -9 -10 -9 0 -16 5 -16 10 0 6 4 10 9
10 6 0 13 -4 16 -10z m40 -80 c3 -5 1 -10 -4 -10 -6 0 -11 5 -11 10 0 6 2 10
4 10 3 0 8 -4 11 -10z"/>
<path d="M2486 4134 c-8 -21 -8 -24 3 -24 12 0 22 28 12 35 -5 3 -12 -2 -15
-11z"/>
<path d="M4890 3780 c0 -5 5 -10 10 -10 6 0 10 5 10 10 0 6 -4 10 -10 10 -5 0
-10 -4 -10 -10z"/>
<path d="M4934 3746 c11 -9 24 -16 30 -16 12 0 7 5 -24 19 -24 11 -24 11 -6
-3z"/>
<path d="M4565 3530 c3 -5 8 -10 11 -10 2 0 4 5 4 10 0 6 -5 10 -11 10 -5 0
-7 -4 -4 -10z"/>
<path d="M4507 3511 c-17 -6 -16 -8 9 -19 22 -11 29 -11 35 0 15 25 -6 34 -44
19z"/>
<path d="M4678 3490 c19 -33 41 -40 38 -13 -2 31 37 25 119 -18 89 -46 122
-72 138 -109 l11 -25 4 29 c7 51 -5 70 -67 103 -58 32 -172 63 -231 63 l-29 0
17 -30z"/>
<path d="M4276 3473 c-9 -22 -3 -25 19 -10 15 12 16 15 2 20 -9 3 -18 -1 -21
-10z"/>
<path d="M4423 3471 c-34 -16 -63 -45 -63 -64 0 -10 48 1 73 17 23 15 32 17
53 7 22 -10 26 -8 33 12 15 39 -37 54 -96 28z m80 -8 c-7 -2 -21 -2 -30 0 -10
3 -4 5 12 5 17 0 24 -2 18 -5z"/>
<path d="M4628 3484 c-9 -8 9 -44 22 -44 14 0 12 13 -3 34 -7 9 -16 14 -19 10z"/>
<path d="M4587 3453 c-10 -18 6 -122 19 -127 9 -3 14 2 14 13 0 11 3 26 6 34
3 8 -4 24 -17 35 -12 12 -19 27 -16 36 6 16 2 22 -6 9z"/>
<path d="M4313 3433 c-3 -10 -8 -21 -10 -25 -2 -5 4 -8 15 -8 10 0 24 11 30
25 10 22 9 25 -9 25 -11 0 -22 -8 -26 -17z"/>
<path d="M4266 3425 c-20 -20 -20 -25 -2 -25 8 0 17 7 20 16 9 24 1 28 -18 9z"/>
<path d="M4538 3423 c-24 -6 -23 -25 3 -47 24 -20 40 -8 32 25 -6 23 -12 27
-35 22z"/>
<path d="M4710 3413 c0 -10 13 -25 28 -34 25 -14 29 -14 45 1 16 16 16 18 -1
33 -25 23 -72 23 -72 0z"/>
<path d="M3085 3305 c-88 -52 -298 -174 -467 -271 l-308 -177 0 -204 c0 -161
3 -203 13 -197 6 4 57 42 111 83 103 78 169 151 258 281 75 110 86 120 114
110 15 -6 26 -5 30 1 3 6 17 8 29 5 14 -4 25 -1 28 7 4 7 8 5 12 -8 6 -19 175
-115 201 -115 6 0 14 17 18 38 15 98 116 182 218 184 48 1 57 5 96 41 23 23
42 47 42 54 0 6 8 17 18 22 9 6 13 11 9 11 -5 0 1 14 13 31 12 16 21 31 19 33
-12 8 -288 166 -291 166 -2 -1 -75 -43 -163 -95z m-181 -326 c-3 -5 -10 -7
-15 -3 -5 3 -7 10 -3 15 3 5 10 7 15 3 5 -3 7 -10 3 -15z"/>
<path d="M5010 3368 c-5 -100 -3 -107 21 -101 16 5 20 2 17 -8 -3 -8 -11 -13
-17 -11 -17 3 -13 -16 7 -27 14 -8 15 -13 4 -30 -7 -12 -9 -21 -4 -21 4 0 9
-48 10 -106 3 -94 1 -106 -13 -100 -11 4 -19 -2 -25 -20 -7 -17 -15 -24 -25
-20 -8 3 -15 1 -15 -3 0 -23 34 -19 56 6 20 23 24 25 24 10 0 -10 4 -16 9 -12
6 3 7 88 4 207 -4 155 -8 204 -18 213 -8 5 -19 21 -24 35 -9 24 -10 23 -11
-12z m37 -64 c-9 -9 -28 6 -21 18 4 6 10 6 17 -1 6 -6 8 -13 4 -17z"/>
<path d="M4646 3348 c-9 -33 -7 -58 3 -58 5 0 12 14 16 31 8 37 -9 62 -19 27z"/>
<path d="M4704 3308 c-32 -48 -31 -61 5 -97 52 -54 89 -118 97 -167 7 -46 12
-53 59 -73 24 -10 28 -10 18 0 -18 18 -16 30 2 23 10 -4 15 0 15 15 0 15 -5
21 -17 19 -13 -2 -18 3 -17 18 0 13 -4 20 -12 17 -7 -3 -12 5 -12 19 0 37 -29
103 -47 106 -9 2 -15 11 -12 20 5 22 -15 61 -46 90 -20 18 -27 21 -33 10z
m136 -279 c0 -6 -4 -7 -10 -4 -5 3 -10 11 -10 16 0 6 5 7 10 4 6 -3 10 -11 10
-16z"/>
<path d="M3664 3180 c27 -15 56 -26 64 -22 10 3 13 1 8 -6 -4 -7 8 -19 32 -31
l38 -19 2 28 c3 45 -40 74 -100 66 -27 -4 -48 -3 -48 2 0 4 -10 9 -22 9 -16 2
-8 -7 26 -27z m126 -30 c0 -5 -4 -10 -10 -10 -5 0 -10 5 -10 10 0 6 5 10 10
10 6 0 10 -4 10 -10z"/>
<path d="M3610 3179 c12 -9 11 -10 -7 -6 -17 4 -23 0 -25 -17 -2 -13 -11 -22
-26 -24 -16 -3 -22 -8 -18 -19 3 -8 6 -20 6 -26 0 -7 5 -4 11 6 5 9 14 17 19
17 6 0 10 -8 11 -17 0 -13 3 -11 10 6 9 23 10 23 28 7 14 -13 20 -14 23 -5 2
7 10 9 17 5 9 -6 9 -11 0 -22 -8 -10 -9 -18 0 -27 6 -8 8 -17 4 -20 -3 -4 -1
-7 5 -7 5 0 12 6 15 13 2 6 8 9 12 5 4 -4 2 -14 -5 -23 -20 -24 6 -19 31 6 15
15 23 18 29 9 5 -8 9 -8 13 3 3 9 18 17 34 19 l28 3 -24 14 c-20 11 -22 11
-16 -1 4 -7 -2 -3 -12 8 -24 28 -113 79 -113 65 0 -6 -5 -11 -11 -11 -6 0 -9
6 -6 13 4 12 -20 36 -38 37 -5 0 -3 -5 5 -11z m90 -83 c0 -8 -4 -18 -10 -21
-5 -3 -10 3 -10 14 0 12 5 21 10 21 6 0 10 -6 10 -14z m45 5 c3 -5 1 -12 -5
-16 -5 -3 -10 1 -10 9 0 18 6 21 15 7z"/>
<path d="M3953 3035 c-10 -11 7 -25 102 -80 63 -37 122 -68 132 -69 21 -3 20
7 21 -166 2 -127 3 -133 18 -111 12 16 13 25 6 30 -7 4 -11 24 -10 45 1 28 7
40 21 45 18 7 18 8 4 14 -18 7 -24 37 -7 37 6 0 10 7 10 15 0 8 -4 15 -10 15
-14 0 -12 37 3 43 10 4 10 6 0 6 -7 1 -13 8 -13 17 0 10 6 14 14 11 10 -4 13
-1 9 9 -3 8 -19 18 -34 21 -39 7 -46 21 -17 32 l23 9 -28 11 c-16 6 -33 9 -38
5 -5 -3 -9 1 -9 8 0 17 -56 51 -70 43 -6 -3 -13 1 -16 10 -6 14 -8 14 -25 -1
-12 -10 -19 -12 -19 -5 0 7 -9 9 -26 5 -19 -5 -25 -4 -20 5 10 16 -6 13 -21
-4z m87 -45 c0 -5 -4 -10 -10 -10 -5 0 -10 5 -10 10 0 6 5 10 10 10 6 0 10 -4
10 -10z m130 -54 c0 -3 -4 -8 -10 -11 -5 -3 -10 -1 -10 4 0 6 5 11 10 11 6 0
10 -2 10 -4z"/>
<path d="M3727 3013 c-12 -12 -7 -22 8 -17 8 4 15 10 15 15 0 11 -14 12 -23 2z"/>
<path d="M3885 3010 c-3 -6 1 -7 9 -4 11 4 16 0 16 -15 0 -20 -12 -26 -50 -22
-13 1 -13 0 1 -11 9 -7 18 -20 22 -28 3 -9 6 -10 6 -2 1 14 31 17 31 2 0 -14
-40 -28 -63 -22 -11 3 -16 10 -13 19 4 8 3 20 -1 26 -4 7 -9 3 -13 -11 -5 -25
-26 -30 -24 -6 1 8 -2 14 -7 14 -14 0 -11 -26 4 -39 8 -6 17 -8 20 -4 4 3 7
-6 7 -20 0 -15 -3 -26 -7 -25 -19 4 -43 -16 -43 -36 0 -17 -2 -18 -10 -6 -9
13 -11 13 -20 0 -5 -8 -15 -15 -22 -16 -37 -3 -39 -4 -33 -26 7 -23 7 -23 -9
-3 -12 16 -15 17 -16 4 0 -8 -18 -31 -40 -50 -22 -19 -40 -39 -40 -45 0 -6
-21 -32 -46 -59 -41 -42 -50 -58 -53 -88 -1 -5 -6 -5 -11 -2 -15 9 -51 -4 -49
-18 1 -7 1 -17 0 -24 -1 -12 -56 -43 -77 -43 -7 0 -19 -8 -26 -17 -22 -30 -71
-59 -113 -68 -22 -5 -32 -10 -23 -12 10 -3 15 -10 11 -19 -3 -9 -13 -12 -23
-9 -11 3 -20 0 -24 -10 -6 -17 -66 -21 -66 -5 0 6 -6 10 -12 9 -37 -4 -68 2
-68 15 0 8 -10 16 -22 19 -13 4 -32 13 -43 22 -20 16 -20 16 1 6 18 -9 23 -7
27 11 3 12 2 30 -4 40 -8 15 -5 20 16 28 15 6 37 10 49 10 13 0 34 9 46 20
l24 21 -22 6 c-19 5 -32 23 -16 23 35 0 74 -60 74 -115 0 -43 7 -44 43 -6 15
17 36 33 47 36 11 4 20 12 20 20 0 7 3 20 6 28 3 9 -3 16 -16 20 -16 4 -20 12
-18 34 2 22 -1 29 -18 31 -12 2 -25 11 -28 20 -3 9 -17 35 -31 57 -25 41 -32
60 -17 51 4 -3 3 16 -2 40 -10 43 -12 44 -26 26 -8 -11 -20 -28 -25 -37 -12
-20 -25 -17 -167 36 -43 16 -83 29 -90 29 -7 0 -35 -44 -63 -97 -27 -54 -71
-138 -97 -186 -27 -48 -46 -92 -43 -98 4 -5 0 -9 -8 -9 -8 0 -17 -6 -20 -13
-4 -10 21 -13 114 -12 89 0 119 -3 119 -12 0 -9 -18 -14 -52 -14 -29 -1 -41
-4 -26 -6 14 -2 29 -10 32 -18 6 -16 -31 -12 -134 15 l-65 16 -24 -30 -25 -31
25 23 c30 26 49 28 49 5 0 -13 3 -14 8 -5 6 8 19 10 40 6 17 -4 29 -10 26 -15
-3 -5 16 -9 43 -9 26 0 67 -9 90 -19 23 -11 44 -17 47 -14 3 3 21 -6 40 -21
19 -14 40 -26 46 -26 7 0 10 -7 6 -15 -4 -10 1 -15 15 -15 11 0 17 5 14 10 -3
6 -1 10 4 10 6 0 11 -4 11 -8 0 -5 39 -8 86 -7 60 1 90 -2 99 -12 8 -7 28 -13
47 -13 18 0 69 -7 113 -16 44 -8 114 -22 156 -30 59 -12 90 -13 140 -5 35 6
65 15 67 21 3 7 8 5 16 -3 6 -8 21 -18 34 -22 31 -9 29 19 -5 63 -24 32 -25
36 -9 48 16 11 15 17 -13 86 -17 41 -51 96 -76 125 -49 56 -56 69 -25 53 17
-9 24 -6 43 14 l23 25 42 -87 c42 -87 67 -178 56 -207 -4 -10 0 -15 15 -15 12
0 24 -7 27 -15 4 -8 10 -12 15 -9 6 3 21 -1 34 -10 29 -19 58 -21 52 -3 -2 6
-15 12 -28 12 -15 0 -25 7 -27 18 -4 20 27 24 46 5 9 -9 12 -6 12 14 0 31 17
47 26 24 8 -20 24 -21 24 -1 0 8 5 15 10 15 6 0 10 -6 10 -12 0 -10 3 -9 9 1
6 8 16 11 31 6 15 -5 20 -4 16 4 -4 6 -17 11 -29 11 -12 0 -29 5 -37 11 -12 9
-11 10 8 6 12 -3 22 -1 22 3 0 5 13 8 30 8 24 -1 30 -6 36 -31 5 -26 8 -28 16
-13 5 9 7 25 3 35 -3 11 -1 22 5 26 7 4 7 12 0 25 -7 13 -7 21 0 25 5 3 10 0
10 -8 0 -8 12 -23 27 -33 l28 -17 -18 26 c-9 14 -13 29 -8 32 6 3 14 -3 20
-12 9 -16 10 -16 11 4 0 12 -7 28 -15 37 -8 8 -15 18 -15 21 0 4 7 5 15 1 9
-3 15 0 15 9 0 7 -8 16 -17 20 -18 6 -63 68 -63 87 0 6 10 8 23 5 20 -5 20 -5
5 7 -29 22 -22 46 12 46 17 0 30 -4 30 -9 0 -15 -18 -23 -25 -11 -3 5 -10 10
-16 10 -18 0 -8 -15 21 -32 l30 -17 2 27 c1 15 2 81 3 148 l3 120 -32 19
c-126 75 -187 106 -195 101 -5 -4 -13 -1 -17 5 -4 8 -3 9 4 5 7 -4 12 -5 12
-2 0 5 -54 36 -64 36 -3 0 -8 -4 -11 -10z m105 -73 c0 -5 -7 -7 -15 -3 -8 3
-15 1 -15 -4 0 -6 -7 -10 -15 -10 -14 0 -20 12 -10 21 8 9 55 5 55 -4z m-120
-57 c0 -5 -4 -10 -10 -10 -5 0 -10 5 -10 10 0 6 5 10 10 10 6 0 10 -4 10 -10z
m-1012 -140 c6 0 12 -7 12 -15 0 -18 1 -18 -39 -4 -35 12 -43 35 -8 25 12 -3
28 -6 35 -6z m165 -17 c20 -9 37 -19 37 -25 0 -5 -16 -30 -35 -55 -19 -25 -35
-42 -35 -38 0 5 -9 0 -20 -10 -11 -10 -23 -15 -28 -11 -4 4 4 16 17 27 13 10
19 19 15 19 -16 0 -31 -15 -53 -50 -23 -39 -27 -55 -9 -44 7 4 8 3 4 -5 -4 -6
-12 -8 -18 -5 -6 4 -8 -2 -3 -17 5 -19 4 -21 -4 -9 -6 8 -11 11 -12 5 -1 -5
-3 -14 -4 -20 -2 -5 -3 -14 -4 -20 -1 -5 -12 3 -25 20 l-24 30 -28 -47 c-29
-48 -50 -63 -39 -29 8 25 -21 54 -46 46 -30 -10 -21 7 25 45 39 32 41 36 22
45 -27 14 -36 41 -10 30 47 -19 63 -18 73 7 5 13 16 30 25 37 9 7 16 22 16 32
0 11 5 19 10 19 6 0 10 8 10 18 0 10 3 22 7 26 9 9 90 -3 136 -21z m-175 -34
c3 -14 -2 -15 -32 -5 -39 12 -38 29 2 24 15 -2 28 -10 30 -19z m1054 -1 c-7
-7 -12 -8 -12 -2 0 6 3 14 7 17 3 4 9 5 12 2 2 -3 -1 -11 -7 -17z m-1092 -22
c21 -8 28 -16 21 -21 -18 -11 -61 3 -61 20 0 18 0 18 40 1z m1150 -4 c0 -13
-12 -22 -22 -16 -10 6 -1 24 13 24 5 0 9 -4 9 -8z m40 -8 c0 -9 -5 -14 -12
-12 -18 6 -21 28 -4 28 9 0 16 -7 16 -16z m40 1 c0 -8 -4 -15 -10 -15 -5 0
-10 7 -10 15 0 8 5 15 10 15 6 0 10 -7 10 -15z m40 5 c0 -5 -4 -10 -10 -10 -5
0 -10 5 -10 10 0 6 5 10 10 10 6 0 10 -4 10 -10z m-1286 -26 c9 -3 16 -12 16
-19 0 -10 -7 -11 -35 -3 -19 6 -32 15 -29 20 6 9 26 10 48 2z m-81 -181 c17
-10 -6 -23 -42 -23 -43 0 -52 6 -44 27 4 11 15 13 42 8 20 -4 39 -9 44 -12z
m237 -13 c0 -5 -4 -10 -10 -10 -5 0 -10 5 -10 10 0 6 5 10 10 10 6 0 10 -4 10
-10z m1090 0 c0 -5 -4 -10 -10 -10 -5 0 -10 5 -10 10 0 6 5 10 10 10 6 0 10
-4 10 -10z m-40 -50 c0 -5 -4 -10 -10 -10 -5 0 -10 5 -10 10 0 6 5 10 10 10 6
0 10 -4 10 -10z m40 0 c0 -5 -4 -10 -10 -10 -5 0 -10 5 -10 10 0 6 5 10 10 10
6 0 10 -4 10 -10z m40 0 c0 -5 -4 -10 -10 -10 -5 0 -10 5 -10 10 0 6 5 10 10
10 6 0 10 -4 10 -10z m-840 -60 c0 -5 -2 -10 -4 -10 -3 0 -8 5 -11 10 -3 6 -1
10 4 10 6 0 11 -4 11 -10z m210 -59 c0 -12 -6 -21 -12 -22 -7 0 -4 -4 7 -8 12
-5 23 -4 27 3 6 8 8 7 8 -1 0 -22 20 -14 32 12 13 28 28 33 28 9 0 -8 5 -12
10 -9 19 12 10 -18 -15 -51 -21 -28 -29 -32 -48 -24 -12 5 -47 16 -77 24 -53
15 -100 46 -100 66 0 6 5 10 11 10 5 0 7 -4 4 -10 -3 -5 -2 -10 3 -10 6 0 12
6 15 13 2 7 26 13 56 15 46 3 51 1 51 -17z m470 5 c0 -3 -4 -8 -10 -11 -5 -3
-10 -1 -10 4 0 6 5 11 10 11 6 0 10 -2 10 -4z m-306 -41 c-4 -8 -1 -15 5 -15
17 0 13 -23 -10 -52 -18 -23 -25 -25 -45 -16 l-23 11 37 43 c39 48 44 52 36
29z m33 -17 c-3 -8 -6 -5 -6 6 -1 11 2 17 5 13 3 -3 4 -12 1 -19z m93 -48 c0
-5 -4 -10 -10 -10 -5 0 -10 5 -10 10 0 6 5 10 10 10 6 0 10 -4 10 -10z"/>
<path d="M2930 2685 c-7 -9 -11 -17 -8 -20 2 -2 12 4 21 15 9 11 13 20 8 20
-5 0 -14 -7 -21 -15z"/>
<path d="M2860 2549 c0 -5 5 -7 10 -4 6 3 10 8 10 11 0 2 -4 4 -10 4 -5 0 -10
-5 -10 -11z"/>
<path d="M3450 2216 c0 -2 7 -6 15 -10 8 -3 15 -1 15 4 0 6 -7 10 -15 10 -8 0
-15 -2 -15 -4z"/>
<path d="M3840 2995 c-7 -9 -11 -17 -8 -20 2 -2 12 4 21 15 9 11 13 20 8 20
-5 0 -14 -7 -21 -15z"/>
<path d="M3791 2988 c-1 -11 -9 -18 -21 -18 -13 0 -20 -7 -20 -20 0 -25 5 -25
31 1 11 11 18 28 16 37 -4 15 -5 15 -6 0z"/>
<path d="M3260 2967 c-81 -43 -113 -152 -70 -237 22 -43 55 -71 75 -64 7 3 15
-2 18 -10 4 -9 18 -16 32 -16 20 0 25 5 24 23 -1 16 -2 18 -6 5 -2 -10 -14
-18 -25 -18 -15 0 -19 5 -15 20 3 13 -1 24 -13 30 -19 10 -43 64 -33 74 13 12
53 6 53 -9 0 -21 39 -40 54 -25 8 9 7 11 -4 8 -9 -2 -14 3 -12 11 3 12 0 12
-12 1 -13 -10 -16 -10 -16 4 0 9 5 16 12 16 6 0 1 11 -12 25 -18 19 -26 22
-32 13 -5 -8 -6 -3 -3 13 5 20 2 28 -12 34 -26 11 -46 12 -60 1 -8 -5 -13 -4
-13 2 0 18 33 31 63 25 17 -4 27 -1 27 7 0 7 -8 10 -20 7 -25 -6 -27 10 -2 17
10 4 31 20 47 36 36 37 17 40 -45 7z"/>
<path d="M4925 2940 c3 -5 8 -10 11 -10 2 0 4 5 4 10 0 6 -5 10 -11 10 -5 0
-7 -4 -4 -10z"/>
<path d="M5093 2894 c0 -15 -6 -30 -12 -33 -9 -6 123 -91 141 -91 3 0 5 16 4
37 -1 33 -6 39 -61 74 -33 21 -62 38 -65 38 -3 1 -6 -11 -7 -25z m37 -24 c0
-5 -2 -10 -4 -10 -3 0 -8 5 -11 10 -3 6 -1 10 4 10 6 0 11 -4 11 -10z"/>
<path d="M3765 2900 c-3 -5 -1 -10 4 -10 6 0 11 5 11 10 0 6 -2 10 -4 10 -3 0
-8 -4 -11 -10z"/>
<path d="M6044 2765 c-3 -12 -17 -26 -32 -33 -15 -7 -53 -36 -84 -66 -32 -30
-67 -58 -78 -61 -11 -4 -28 -21 -37 -38 l-18 -32 -3 28 c-4 32 -2 31 -38 12
-16 -8 -37 -12 -46 -9 -10 3 -18 1 -18 -5 0 -6 -7 -11 -15 -11 -19 0 -85 -62
-85 -79 0 -29 -68 -75 -91 -60 -20 13 -39 11 -39 -3 -1 -16 -45 -68 -58 -68
-5 0 -19 -8 -30 -19 -20 -16 -22 -29 -22 -113 l0 -94 -251 -146 -252 -145
-154 88 c-85 49 -158 89 -163 89 -4 0 -11 -17 -15 -38 -10 -62 -43 -94 -126
-122 l-74 -25 -3 -40 -2 -40 16 29 c9 16 19 25 25 19 11 -11 -21 -84 -36 -81
-5 1 -25 -6 -43 -16 -43 -22 -55 -13 -13 11 24 14 31 24 30 48 l-1 30 -14 -32
c-18 -43 -34 -42 -34 2 0 24 5 35 15 35 8 0 15 5 15 10 0 13 -17 13 -25 0 -4
-6 -27 -22 -53 -35 -85 -46 -126 -72 -130 -84 -3 -8 5 -10 24 -5 l28 7 -29
-49 c-33 -57 -39 -65 -167 -257 -54 -80 -98 -148 -98 -151 0 -18 45 -65 54
-57 6 4 47 4 91 0 44 -4 97 -8 118 -8 l37 -1 0 49 c0 28 5 53 10 56 6 4 10
-17 10 -54 l0 -61 38 0 c21 0 43 5 49 11 7 7 55 10 136 7 l125 -3 -3 37 c-2
21 1 40 6 44 6 4 6 11 -2 20 -18 21 4 25 132 22 l114 -3 1 -75 c3 -107 3 -114
10 -107 4 4 8 73 8 154 l1 148 25 3 c14 2 38 19 55 38 39 45 79 56 136 37 49
-17 81 -41 73 -55 -3 -5 2 -15 12 -22 26 -20 14 -90 -24 -130 -21 -23 -28 -39
-27 -63 2 -18 -2 -33 -7 -33 -5 0 -6 -6 -1 -12 11 -19 12 -68 1 -68 -5 0 -7
-4 -3 -10 3 -5 22 -8 43 -7 20 1 43 -2 51 -7 9 -6 19 -3 29 10 13 16 14 17 9
2 -5 -14 -1 -18 22 -18 170 0 1026 -75 1094 -96 17 -5 17 -4 -2 15 -12 12 -28
18 -38 15 -10 -3 -6 2 9 11 47 27 67 98 31 108 -17 4 -17 5 0 6 11 1 17 9 17
26 0 22 -9 30 -32 26 -5 0 -8 4 -8 10 0 6 9 8 20 4 17 -5 20 -2 20 20 0 23 -3
26 -22 21 -13 -3 -29 -6 -37 -6 -8 0 -11 -6 -7 -15 4 -12 0 -14 -22 -9 -15 4
-32 13 -38 20 -12 15 -49 20 -40 6 2 -4 -11 -8 -29 -8 -30 0 -34 3 -33 23 2
16 8 21 23 20 11 -1 19 3 18 10 -2 7 3 13 10 13 6 1 28 15 47 32 22 20 26 26
10 16 -81 -49 -141 -79 -152 -76 -6 2 30 28 81 57 51 29 90 56 87 58 -11 11
15 43 35 43 11 0 18 4 15 9 -3 5 1 14 9 21 11 9 15 35 15 102 0 70 3 90 15 94
22 9 18 24 -6 24 -11 0 -18 4 -14 10 3 5 12 7 20 3 13 -4 15 49 15 409 l0 414
-207 13 c-114 7 -211 15 -215 17 -19 12 -3 26 79 70 96 53 163 107 163 133 0
9 -7 25 -16 36 -15 20 -15 20 -20 0z m-353 -250 c-42 -19 -47 -19 -31 0 7 8
24 15 39 15 25 -1 25 -1 -8 -15z m76 -292 c26 -15 41 -29 35 -31 -6 -2 -28 8
-50 22 l-39 24 -43 -24 c-24 -13 -46 -21 -49 -18 -3 4 -1 8 4 10 6 2 24 13 40
23 40 26 49 25 102 -6z m-171 -48 c-11 -8 -25 -15 -30 -15 -6 0 -2 7 8 15 11
8 25 15 30 15 6 0 2 -7 -8 -15z m284 -20 c16 -19 0 -19 -26 0 -16 12 -16 14
-3 15 9 0 22 -7 29 -15z m-360 -22 c0 -7 -147 -93 -173 -102 -27 -8 13 22 84
64 76 45 89 51 89 38z m504 -58 c38 -21 65 -40 58 -43 -14 -4 -172 87 -172
100 0 6 10 4 23 -4 12 -8 53 -32 91 -53z m-694 -53 c0 -5 -11 -14 -25 -20 -28
-13 -35 1 -7 17 21 13 32 14 32 3z m830 -27 c16 -19 0 -19 -26 0 -16 12 -16
14 -3 15 9 0 22 -7 29 -15z m-920 -25 c0 -5 -4 -10 -10 -10 -6 0 -10 -37 -10
-90 0 -53 -4 -90 -10 -90 -15 0 -13 173 2 188 15 15 28 16 28 2z m980 -106 c0
-56 -4 -94 -10 -94 -6 0 -10 38 -10 95 0 60 -4 95 -11 95 -5 0 -7 5 -4 10 5 8
11 7 21 -1 10 -8 14 -37 14 -105z m-367 8 c-7 -25 -116 -108 -195 -148 -53
-27 -206 -84 -224 -84 -2 0 -4 4 -4 9 0 5 20 14 43 20 131 32 357 162 343 196
-3 8 2 19 12 24 21 12 31 6 25 -17z m-1192 -47 c16 -9 27 -20 23 -26 -4 -6
-15 -4 -30 6 -18 12 -29 13 -43 5 -25 -13 -38 5 -14 19 24 14 29 14 64 -4z
m1291 -132 c3 -94 4 -98 26 -99 13 -1 28 -8 35 -17 8 -11 30 -16 72 -17 93 -2
97 -1 82 15 -7 7 -22 15 -33 18 -14 3 -12 5 8 6 15 0 30 7 35 14 5 8 10 -2 14
-28 6 -35 7 -33 7 20 1 110 2 125 12 125 15 0 12 -60 -2 -61 -10 0 -10 -2 0
-6 15 -6 17 -209 2 -218 -5 -3 -10 -1 -10 6 0 7 -3 9 -7 6 -3 -4 -18 0 -32 9
-17 12 -49 17 -102 18 -69 1 -79 3 -84 21 l-6 20 -9 -20 c-5 -11 -9 -32 -9
-47 -1 -23 -6 -28 -26 -29 -14 -1 -31 -2 -37 -3 -9 -1 -15 20 -19 59 l-6 60
-1 -63 -2 -63 -37 3 -38 3 -6 75 -5 75 -2 -78 -2 -78 -37 3 -38 3 -3 148 -3
147 40 0 40 0 4 -72 c3 -71 3 -70 5 20 l2 92 40 0 39 0 4 -82 3 -83 2 98 2 97
40 0 39 0 3 -97z m-1522 85 c-1 -18 -31 -83 -39 -86 -17 -6 -13 35 5 63 13 20
35 34 34 23z m74 -27 c-11 -9 -24 -29 -28 -44 -7 -29 -26 -37 -26 -12 0 8 -7
15 -15 15 -23 0 -18 16 10 28 14 6 25 16 25 21 0 10 41 20 50 13 3 -2 -4 -11
-16 -21z m261 9 c3 -5 -1 -10 -10 -10 -9 0 -13 5 -10 10 3 6 8 10 10 10 2 0 7
-4 10 -10z m-214 -45 c-6 -39 -23 -51 -29 -21 -3 12 29 69 34 63 1 -1 -1 -20
-5 -42z m669 20 c0 -14 -4 -25 -10 -25 -5 0 -10 11 -10 25 0 14 5 25 10 25 6
0 10 -11 10 -25z m-600 -24 c0 -28 -11 -52 -21 -45 -10 6 -12 48 -2 57 12 13
23 7 23 -12z m267 -18 c26 -15 41 -29 35 -31 -14 -4 -92 38 -92 50 0 13 8 10
57 -19z m-527 -20 c0 -5 -49 -36 -108 -69 l-107 -62 -3 -61 c-2 -33 -7 -61
-13 -61 -6 0 -9 27 -7 67 l3 67 110 63 c110 63 125 70 125 56z m1320 -124 l0
-130 -37 3 -38 3 -3 113 c-2 62 -1 120 2 128 3 8 19 14 41 14 l35 0 0 -131z
m-460 11 c0 -60 -4 -100 -10 -100 -6 0 -10 40 -10 100 0 60 4 100 10 100 6 0
10 -40 10 -100z m-152 30 l62 -35 0 -122 c0 -75 -4 -123 -10 -123 -6 0 -10 46
-10 118 l0 117 -60 33 c-33 18 -60 37 -60 43 0 13 -1 13 78 -31z m522 -70 l0
-100 -34 0 c-41 0 -46 13 -46 123 l0 77 40 0 40 0 0 -100z m-798 15 c-2 -14
-7 -23 -11 -20 -4 2 -15 -9 -24 -24 -34 -58 -137 -140 -230 -185 -94 -46 -224
-87 -268 -85 -20 1 -18 3 11 11 19 5 67 19 105 30 148 42 284 123 353 210 18
23 30 48 28 55 -3 7 3 17 12 22 26 16 30 13 24 -14z m708 -46 l0 -70 -37 3
-38 3 -3 62 -3 62 38 4 c21 2 39 4 41 5 1 1 2 -30 2 -69z m-280 -74 c0 -14 -4
-25 -10 -25 -5 0 -10 11 -10 25 0 14 5 25 10 25 6 0 10 -11 10 -25z m124 -101
c93 -54 91 -52 84 -60 -7 -6 -164 82 -174 97 -10 17 9 9 90 -37z m-1204 26 c0
-5 -4 -10 -10 -10 -5 0 -10 5 -10 10 0 6 5 10 10 10 6 0 10 -4 10 -10z m1720
-73 c0 -21 -30 -57 -48 -56 -12 0 -11 3 6 9 24 10 29 26 10 33 -10 4 -9 8 2
16 20 14 30 14 30 -2z m-70 -17 c-19 -13 -30 -13 -30 0 0 6 10 10 23 10 18 0
19 -2 7 -10z m-450 -10 c0 -5 -5 -10 -11 -10 -5 0 -7 5 -4 10 3 6 8 10 11 10
2 0 4 -4 4 -10z m40 0 c0 -5 -4 -10 -10 -10 -5 0 -10 5 -10 10 0 6 5 10 10 10
6 0 10 -4 10 -10z m96 -4 c10 -8 16 -17 13 -20 -3 -4 -17 2 -30 13 -27 23 -13
28 17 7z m89 4 c-3 -5 -12 -10 -18 -10 -7 0 -6 4 3 10 19 12 23 12 15 0z
m-435 -60 c0 -33 -4 -60 -10 -60 -6 0 -10 27 -10 60 0 33 4 60 10 60 6 0 10
-27 10 -60z m800 29 c-17 -14 -26 -17 -28 -9 -5 14 16 30 38 30 10 -1 7 -7
-10 -21z m-57 -13 c26 10 20 -11 -8 -26 -13 -7 -22 -18 -18 -23 3 -6 1 -7 -5
-3 -6 3 -37 -8 -70 -26 l-60 -33 -44 22 c-95 49 -138 76 -138 84 0 15 10 11
91 -36 43 -25 84 -45 90 -45 7 0 40 16 75 37 44 26 61 41 57 52 -4 12 -3 13 4
3 5 -7 17 -10 26 -6z m-578 -5 c3 -5 1 -12 -5 -16 -5 -3 -10 1 -10 9 0 18 6
21 15 7z m45 -6 c0 -8 -4 -15 -10 -15 -5 0 -10 7 -10 15 0 8 5 15 10 15 6 0
10 -7 10 -15z m48 3 c-6 -18 -28 -21 -28 -4 0 9 7 16 16 16 9 0 14 -5 12 -12z
m42 3 c0 -5 -7 -14 -15 -21 -13 -10 -15 -9 -15 9 0 12 6 21 15 21 8 0 15 -4
15 -9z m80 -6 c0 -8 -4 -15 -10 -15 -5 0 -10 7 -10 15 0 8 5 15 10 15 6 0 10
-7 10 -15z m-340 -5 c0 -5 -2 -10 -4 -10 -3 0 -8 5 -11 10 -3 6 -1 10 4 10 6
0 11 -4 11 -10z m90 6 c0 -11 -19 -15 -25 -6 -3 5 1 10 9 10 9 0 16 -2 16 -4z
m205 -6 c3 -5 2 -10 -4 -10 -5 0 -13 5 -16 10 -3 6 -2 10 4 10 5 0 13 -4 16
-10z m650 0 c-3 -5 -14 -10 -23 -10 -15 0 -15 2 -2 10 20 13 33 13 25 0z m-70
-20 c3 -5 -1 -10 -10 -10 -9 0 -13 5 -10 10 3 6 8 10 10 10 2 0 7 -4 10 -10z
m-879 -37 c-10 -10 -19 5 -10 18 6 11 8 11 12 0 2 -7 1 -15 -2 -18z m44 7 c0
-5 -2 -10 -4 -10 -3 0 -8 5 -11 10 -3 6 -1 10 4 10 6 0 11 -4 11 -10z m37 -12
c-3 -8 -6 -5 -6 6 -1 11 2 17 5 13 3 -3 4 -12 1 -19z m53 1 c0 -5 -4 -9 -10
-9 -5 0 -10 7 -10 16 0 8 5 12 10 9 6 -3 10 -10 10 -16z m40 11 c0 -5 -4 -10
-10 -10 -5 0 -10 5 -10 10 0 6 5 10 10 10 6 0 10 -4 10 -10z m40 -6 c0 -8 -4
-12 -10 -9 -5 3 -10 10 -10 16 0 5 5 9 10 9 6 0 10 -7 10 -16z m37 -6 c-3 -8
-6 -5 -6 6 -1 11 2 17 5 13 3 -3 4 -12 1 -19z m53 13 c0 -6 -4 -13 -10 -16 -5
-3 -10 1 -10 9 0 9 5 16 10 16 6 0 10 -4 10 -9z m40 -1 c0 -5 -4 -10 -10 -10
-5 0 -10 5 -10 10 0 6 5 10 10 10 6 0 10 -4 10 -10z m40 -5 c0 -8 -4 -15 -10
-15 -5 0 -10 7 -10 15 0 8 5 15 10 15 6 0 10 -7 10 -15z m40 0 c0 -8 -4 -15
-10 -15 -5 0 -10 7 -10 15 0 8 5 15 10 15 6 0 10 -7 10 -15z m299 -11 c2 -2
-18 -4 -45 -3 -36 0 -44 3 -29 9 18 7 63 3 74 -6z m99 -1 c-10 -2 -28 -2 -40
0 -13 2 -5 4 17 4 22 1 32 -1 23 -4z m-608 -38 c0 -8 -4 -15 -10 -15 -5 0 -10
7 -10 15 0 8 5 15 10 15 6 0 10 -7 10 -15z m85 6 c3 -5 1 -12 -5 -16 -5 -3
-10 1 -10 9 0 18 6 21 15 7z m40 0 c3 -5 1 -12 -5 -16 -5 -3 -10 1 -10 9 0 18
6 21 15 7z m45 -1 c0 -5 -4 -10 -10 -10 -5 0 -10 5 -10 10 0 6 5 10 10 10 6 0
10 -4 10 -10z m36 -17 c-10 -10 -19 5 -10 18 6 11 8 11 12 0 2 -7 1 -15 -2
-18z m40 0 c-10 -10 -19 5 -10 18 6 11 8 11 12 0 2 -7 1 -15 -2 -18z m614 17
c0 -5 -4 -10 -9 -10 -6 0 -13 5 -16 10 -3 6 1 10 9 10 9 0 16 -4 16 -10z
m-900 -10 c0 -5 -4 -10 -10 -10 -5 0 -10 5 -10 10 0 6 5 10 10 10 6 0 10 -4
10 -10z"/>
<path d="M4250 2760 c0 -5 5 -10 11 -10 5 0 7 5 4 10 -3 6 -8 10 -11 10 -2 0
-4 -4 -4 -10z"/>
<path d="M3148 2685 c6 -11 25 -33 44 -50 l33 -30 -35 40 c-19 22 -39 45 -44
50 -5 6 -4 1 2 -10z"/>
<path d="M1392 2492 l-233 -137 -3 -90 c-2 -49 -1 -177 2 -282 l5 -193 165
-96 c131 -78 166 -94 173 -83 5 8 20 32 33 54 13 22 30 40 38 39 8 -1 14 7 14
20 -1 15 7 22 29 26 26 5 22 7 -25 14 -77 10 -132 39 -185 98 -70 78 -91 172
-60 275 31 104 125 188 224 200 l51 6 0 -147 c0 -91 4 -146 10 -146 6 0 10 63
10 169 l0 170 32 -10 c70 -20 139 -62 187 -115 l50 -55 43 22 c92 46 178 100
178 112 0 13 -471 287 -492 286 -7 0 -118 -62 -246 -137z"/>
<path d="M4797 2596 c-5 -12 -14 -15 -32 -10 -20 5 -25 2 -25 -12 0 -16 2 -17
10 -4 7 10 10 -9 10 -62 0 -46 -4 -78 -10 -78 -14 0 -13 -18 2 -34 10 -11 15
-11 25 0 15 15 17 34 3 34 -14 0 -12 27 3 34 10 5 10 7 0 12 -7 3 -13 12 -13
19 0 7 6 16 13 19 10 5 10 7 0 12 -14 6 -18 43 -5 45 45 8 62 4 62 -16 0 -26
17 -52 27 -41 4 5 2 11 -4 13 -16 6 -17 30 -1 35 19 7 -3 30 -23 25 -11 -3
-23 1 -28 10 -7 13 -9 13 -14 -1z"/>
<path d="M4920 2571 c0 -5 9 -7 20 -4 11 3 20 7 20 9 0 2 -9 4 -20 4 -11 0
-20 -4 -20 -9z"/>
<path d="M5020 2576 c0 -2 7 -6 15 -10 8 -3 15 -1 15 4 0 6 -7 10 -15 10 -8 0
-15 -2 -15 -4z"/>
<path d="M5030 2530 c-8 -5 -22 -7 -32 -4 -9 2 -20 -1 -24 -7 -5 -9 -2 -10 9
-6 20 8 31 -8 22 -31 -6 -16 -8 -15 -21 2 -12 17 -14 18 -14 3 0 -20 -4 -21
-31 -7 -17 10 -19 7 -19 -22 0 -39 13 -63 29 -54 6 4 12 1 12 -6 3 -34 5 -38
14 -38 6 0 9 22 7 50 -2 40 1 50 14 50 12 0 15 -8 12 -33 -3 -30 -1 -33 19
-29 13 2 23 11 23 18 0 8 -5 13 -12 12 -6 -2 -14 6 -16 16 -3 14 0 17 12 13
12 -5 16 -1 15 16 0 12 -3 16 -6 9 -7 -17 -23 -5 -23 19 0 21 16 26 23 7 3 -7
6 -3 6 10 1 25 1 25 -19 12z m-62 -92 c-5 -15 -23 -11 -26 6 -2 11 2 14 13 10
9 -4 14 -11 13 -16z"/>
<path d="M4210 2470 c0 -35 3 -60 7 -57 7 8 5 108 -2 116 -3 2 -5 -24 -5 -59z"/>
<path d="M4172 2500 c0 -14 2 -19 5 -12 2 6 2 18 0 25 -3 6 -5 1 -5 -13z"/>
<path d="M4741 2464 c0 -11 3 -14 6 -6 3 7 2 16 -1 19 -3 4 -6 -2 -5 -13z"/>
<path d="M4827 2473 c-12 -11 -7 -19 12 -19 11 0 17 5 14 13 -6 14 -16 17 -26
6z"/>
<path d="M5113 2467 c3 -9 9 -32 13 -51 5 -30 4 -35 -9 -30 -9 3 -22 2 -29 -2
-13 -8 -18 -10 -50 -12 -10 -1 -20 -13 -24 -27 -13 -53 -67 -56 -78 -4 -3 17
-12 29 -21 29 -8 0 -15 9 -15 19 0 11 -4 23 -10 26 -14 9 -50 -13 -50 -30 0
-8 -4 -15 -10 -15 -14 0 -12 -28 3 -33 9 -3 8 -8 -3 -22 -11 -14 -12 -19 -2
-22 6 -3 12 -11 12 -19 0 -10 7 -7 22 8 14 14 18 23 10 26 -14 4 -16 42 -2 42
6 0 10 -8 10 -19 0 -10 7 -24 16 -32 8 -7 22 -25 30 -41 8 -16 19 -26 24 -23
6 4 10 -2 10 -13 0 -10 8 -26 18 -36 18 -15 20 -14 38 26 10 23 17 51 16 61
-2 11 1 17 6 13 12 -7 24 9 26 35 1 11 4 19 9 19 4 0 12 0 18 0 5 0 7 -5 4
-10 -4 -7 3 -8 20 -4 18 4 30 2 36 -7 4 -7 12 -10 16 -5 4 5 2 11 -4 13 -10 4
-9 12 3 35 9 17 14 38 11 48 -3 14 0 17 12 13 22 -6 -14 23 -53 44 -26 13 -28
13 -23 0z m-233 -82 c0 -8 -4 -15 -9 -15 -13 0 -22 16 -14 24 11 11 23 6 23
-9z m36 -72 c-11 -11 -19 6 -11 24 8 17 8 17 12 0 3 -10 2 -21 -1 -24z m132
18 c-4 -19 -22 -18 -26 2 -2 7 4 14 13 14 9 0 15 -7 13 -16z m-88 -56 c0 -8
-4 -15 -10 -15 -5 0 -10 7 -10 15 0 8 5 15 10 15 6 0 10 -7 10 -15z m36 -12
c-10 -10 -19 5 -10 18 6 11 8 11 12 0 2 -7 1 -15 -2 -18z m14 -44 c0 -5 -7 -9
-15 -9 -15 0 -20 12 -9 23 8 8 24 -1 24 -14z"/>
<path d="M2490 2428 c-65 -78 -70 -87 -61 -93 6 -3 27 20 49 52 65 98 68 108
12 41z"/>
<path d="M4680 2405 c-7 -9 -11 -18 -8 -20 3 -3 11 1 18 10 7 9 11 18 8 20 -3
3 -11 -1 -18 -10z"/>
<path d="M4665 2338 c6 -23 3 -28 -20 -34 -37 -9 -24 -17 17 -9 30 6 34 10 35
40 1 27 -3 33 -18 32 -16 -1 -19 -6 -14 -29z"/>
<path d="M4775 2360 c3 -5 8 -10 11 -10 2 0 4 5 4 10 0 6 -5 10 -11 10 -5 0
-7 -4 -4 -10z"/>
<path d="M5183 2294 c-5 -13 -7 -13 -14 -2 -5 7 -9 9 -9 3 0 -5 4 -16 8 -23 6
-9 12 -6 20 13 6 14 9 25 6 25 -2 0 -7 -7 -11 -16z"/>
<path d="M2166 2285 c-11 -8 -15 -15 -9 -15 6 0 16 7 23 15 16 19 11 19 -14 0z"/>
<path d="M2499 2283 c-13 -16 -12 -17 4 -4 9 7 17 15 17 17 0 8 -8 3 -21 -13z"/>
<path d="M4750 2275 c0 -18 -16 -20 -23 -2 -4 9 -8 9 -15 -2 -5 -7 -14 -11
-19 -8 -14 9 -114 -23 -107 -34 3 -6 0 -17 -7 -25 -19 -24 -3 -28 56 -15 43
10 55 17 55 32 0 10 5 19 10 19 6 0 10 -7 10 -17 0 -14 2 -14 20 2 16 14 20
15 20 3 0 -8 8 -23 18 -34 9 -10 23 -31 31 -46 8 -15 19 -26 25 -25 6 1 10 -5
9 -13 -1 -8 7 -26 18 -40 l20 -25 -4 97 c-3 67 -1 98 7 101 6 2 8 8 4 12 -4 4
-14 2 -22 -4 -10 -9 -16 -9 -21 -1 -5 8 -11 8 -21 -1 -10 -8 -14 -8 -14 0 0 6
-7 11 -16 11 -10 0 -14 6 -10 15 3 9 0 15 -9 15 -8 0 -15 -7 -15 -15z m-120
-50 c0 -8 -7 -15 -15 -15 -16 0 -20 12 -8 23 11 12 23 8 23 -8z m40 0 c0 -8
-4 -15 -10 -15 -5 0 -10 7 -10 15 0 8 5 15 10 15 6 0 10 -7 10 -15z m131 3 c0
-10 2 -10 6 0 7 18 35 15 31 -5 -2 -9 -15 -18 -30 -20 -27 -4 -44 10 -33 27 9
14 25 12 26 -2z m39 -57 c0 -6 -4 -13 -10 -16 -5 -3 -10 1 -10 9 0 9 5 16 10
16 6 0 10 -4 10 -9z"/>
<path d="M2540 2269 c0 -5 5 -7 10 -4 6 3 10 8 10 11 0 2 -4 4 -10 4 -5 0 -10
-5 -10 -11z"/>
<path d="M2025 2209 c-63 -35 -91 -56 -92 -70 -1 -13 2 -17 10 -12 7 4 17 8
22 8 6 1 9 6 8 13 -2 6 3 9 11 6 8 -3 17 -1 21 5 3 6 -2 11 -12 11 -10 0 16
19 57 41 80 44 88 49 74 49 -5 0 -50 -23 -99 -51z"/>
<path d="M2320 2245 c-19 -23 -8 -25 14 -4 11 11 15 19 9 19 -6 0 -16 -7 -23
-15z"/>
<path d="M2470 2233 c-25 -8 -63 -12 -87 -9 -28 4 -45 1 -52 -8 -10 -11 -4
-15 28 -21 l40 -7 -44 -56 c-29 -36 -45 -67 -45 -85 0 -32 28 -49 41 -25 28
50 106 141 128 149 25 10 41 26 41 42 0 5 -4 6 -9 2 -5 -3 -12 -1 -15 4 -4 5
4 11 16 13 13 2 19 6 13 9 -5 3 -30 0 -55 -8z"/>
<path d="M2629 2248 c-1 -5 -2 -14 -3 -20 0 -7 -10 -14 -21 -16 -29 -6 -43
-22 -18 -22 32 0 65 32 53 50 -5 8 -10 12 -11 8z"/>
<path d="M2247 2209 c-20 -17 -37 -37 -37 -45 0 -10 15 -3 45 22 42 34 56 54
37 54 -4 0 -24 -14 -45 -31z"/>
<path d="M2742 2233 c-10 -4 -9 -10 5 -25 14 -16 15 -22 5 -26 -19 -6 34 -32
67 -32 14 0 33 -5 41 -10 21 -14 9 -13 -113 10 -101 20 -134 20 -122 0 5 -8
108 -25 135 -23 8 1 37 -5 64 -13 27 -7 55 -14 61 -14 18 0 5 59 -16 74 -10 7
-16 16 -12 19 3 4 -4 16 -17 27 -22 19 -68 25 -98 13z"/>
<path d="M2665 2200 c-4 -6 7 -10 25 -10 18 0 29 4 25 10 -3 6 -15 10 -25 10
-10 0 -22 -4 -25 -10z"/>
<path d="M3811 2194 c0 -11 3 -14 6 -6 3 7 2 16 -1 19 -3 4 -6 -2 -5 -13z"/>
<path d="M3035 2180 c4 -6 11 -8 16 -5 14 9 11 15 -7 15 -8 0 -12 -5 -9 -10z"/>
<path d="M2566 2171 c-3 -5 3 -11 14 -14 13 -3 20 0 20 9 0 15 -26 19 -34 5z"/>
<path d="M2988 2163 c-10 -3 -15 -10 -11 -19 7 -18 -2 -18 -21 2 -14 13 -16
13 -16 1 0 -8 9 -17 21 -20 11 -3 23 -15 26 -26 4 -15 13 -21 34 -21 34 0 39
17 7 23 -13 2 2 5 32 7 l55 2 -45 14 -45 14 47 -5 c39 -4 46 -2 41 11 -4 11
-14 13 -33 9 -14 -3 -37 -2 -51 3 -13 5 -32 7 -41 5z"/>
<path d="M3870 2155 c-7 -9 -11 -18 -8 -20 3 -3 11 1 18 10 7 9 11 18 8 20 -3
3 -11 -1 -18 -10z"/>
<path d="M2250 2150 c0 -5 5 -10 10 -10 6 0 10 5 10 10 0 6 -4 10 -10 10 -5 0
-10 -4 -10 -10z"/>
<path d="M3245 2151 c-7 -13 2 -17 51 -26 25 -4 44 -2 48 4 8 12 -26 23 -48
15 -9 -3 -16 -1 -16 5 0 13 -27 15 -35 2z"/>
<path d="M2150 2116 c-11 -29 -4 -33 20 -11 24 22 25 32 4 32 -9 0 -19 -10
-24 -21z"/>
<path d="M2431 2101 l-31 -39 31 -6 c51 -10 54 -8 56 35 l2 41 -26 -23 -26
-24 18 28 c25 40 11 33 -24 -12z"/>
<path d="M3155 2120 c-4 -6 -11 -8 -16 -5 -5 4 -9 2 -9 -3 0 -12 193 -35 245
-30 38 4 37 5 -10 6 -28 1 -55 6 -60 11 -18 16 -65 22 -65 9 0 -10 -2 -10 -9
1 -5 8 -16 11 -30 6 -12 -4 -21 -2 -21 4 0 14 -17 14 -25 1z"/>
<path d="M2210 2104 c0 -9 5 -14 12 -12 18 6 21 28 4 28 -9 0 -16 -7 -16 -16z"/>
<path d="M2590 2114 c0 -7 -10 -9 -25 -6 -21 4 -25 1 -25 -21 0 -46 7 -53 53
-49 38 4 79 22 49 22 -7 0 -21 15 -32 33 -11 17 -20 27 -20 21z"/>
<path d="M2950 2100 c0 -5 5 -10 11 -10 5 0 7 5 4 10 -3 6 -8 10 -11 10 -2 0
-4 -4 -4 -10z"/>
<path d="M2121 2088 c0 -10 -7 -17 -13 -15 -7 1 -12 -4 -10 -10 1 -7 -4 -12
-10 -10 -7 1 -12 -4 -10 -10 1 -7 -3 -12 -10 -10 -6 1 -17 -8 -23 -20 -7 -13
-14 -21 -17 -18 -3 3 -11 -1 -18 -10 -11 -13 -8 -15 19 -15 19 0 30 4 26 10
-3 6 4 14 17 19 13 6 19 10 14 10 -6 1 3 14 18 30 17 18 26 36 23 48 -4 16 -5
16 -6 1z"/>
<path d="M2653 2085 c11 -7 26 -11 34 -8 12 5 12 7 1 14 -7 5 -22 9 -33 9 -19
-1 -19 -1 -2 -15z"/>
<path d="M3561 2049 c-15 -20 -30 -29 -42 -26 -21 6 -36 -23 -17 -34 8 -5 4
-18 -15 -48 -15 -22 -27 -46 -27 -53 0 -7 14 11 31 40 16 29 37 56 44 59 8 3
15 12 15 21 0 9 12 29 27 44 15 15 23 28 17 27 -5 0 -20 -14 -33 -30z"/>
<path d="M3644 2040 c-16 -22 -34 -38 -41 -35 -6 2 -17 -2 -23 -10 -8 -10 -8
-14 2 -17 8 -3 5 -16 -12 -43 l-24 -39 56 32 c32 17 59 28 62 23 7 -11 -8 -23
-61 -50 -24 -12 -43 -26 -43 -31 0 -16 16 -12 69 19 45 27 61 30 61 11 0 -4
-23 -17 -50 -30 -28 -13 -49 -28 -47 -34 2 -6 20 -15 40 -20 33 -9 69 -3 125
20 6 3 12 1 12 -6 0 -16 -63 -40 -107 -40 -21 0 -51 7 -68 16 -16 8 -40 12
-52 9 -25 -6 -32 12 -8 21 8 4 12 10 9 15 -9 15 -19 10 -37 -20 -17 -29 -17
-30 10 -55 82 -76 228 -52 278 45 17 32 22 129 9 151 -5 7 -16 13 -24 13 -9 0
-15 10 -15 25 0 24 -52 70 -80 70 -6 0 -24 -18 -41 -40z m91 0 c3 -5 2 -10 -4
-10 -5 0 -13 5 -16 10 -3 6 -2 10 4 10 5 0 13 -4 16 -10z m12 -46 c-9 -9 -28
6 -21 18 4 6 10 6 17 -1 6 -6 8 -13 4 -17z m-42 -44 c3 -5 -1 -10 -9 -10 -9 0
-16 5 -16 10 0 6 4 10 9 10 6 0 13 -4 16 -10z m45 0 c0 -5 -7 -10 -16 -10 -8
0 -12 5 -9 10 3 6 10 10 16 10 5 0 9 -4 9 -10z"/>
<path d="M2168 2063 c7 -3 16 -2 19 1 4 3 -2 6 -13 5 -11 0 -14 -3 -6 -6z"/>
<path d="M3166 2061 c-6 -10 18 -15 62 -14 6 1 12 -5 12 -11 0 -7 -6 -18 -12
-26 -7 -8 -4 -7 8 3 21 18 69 23 78 9 2 -4 17 -7 33 -6 39 2 40 2 40 19 0 17
3 16 -57 19 -25 2 -70 6 -101 10 -38 6 -59 4 -63 -3z"/>
<path d="M1768 2053 c12 -2 30 -2 40 0 9 3 -1 5 -23 4 -22 0 -30 -2 -17 -4z"/>
<path d="M2287 2043 c-4 -3 -7 -11 -7 -17 0 -6 5 -5 12 2 6 6 9 14 7 17 -3 3
-9 2 -12 -2z"/>
<path d="M2157 2023 c-4 -3 -7 -16 -6 -27 0 -12 3 -15 6 -9 2 7 4 15 3 19 -1
4 4 11 12 15 7 5 8 9 2 9 -6 0 -14 -3 -17 -7z"/>
<path d="M1671 2007 c2 -1 13 -9 24 -17 19 -14 19 -14 6 3 -7 9 -18 17 -24 17
-6 0 -8 -1 -6 -3z"/>
<path d="M3294 1975 c-9 -14 -15 -27 -13 -30 3 -2 12 10 21 26 21 36 15 39 -8
4z"/>
<path d="M2106 1978 c3 -4 9 -8 15 -8 5 0 9 4 9 8 0 5 -7 9 -15 9 -8 0 -12 -4
-9 -9z"/>
<path d="M3202 1978 c-21 -27 -92 -161 -88 -166 3 -2 11 7 17 22 7 14 16 26
20 26 4 0 10 12 13 26 4 14 18 43 32 65 23 37 27 53 6 27z"/>
<path d="M3327 1969 c7 -7 15 -10 18 -7 3 3 -2 9 -12 12 -14 6 -15 5 -6 -5z"/>
<path d="M1735 1950 c3 -5 8 -10 11 -10 2 0 4 5 4 10 0 6 -5 10 -11 10 -5 0
-7 -4 -4 -10z"/>
<path d="M3356 1928 c-14 -27 -14 -29 -1 -13 9 11 20 19 25 18 5 -2 7 4 4 12
-8 19 -7 20 -28 -17z"/>
<path d="M2753 1933 c9 -2 23 -2 30 0 6 3 -1 5 -18 5 -16 0 -22 -2 -12 -5z"/>
<path d="M3200 1930 c0 -6 7 -10 15 -10 8 0 15 2 15 4 0 2 -7 6 -15 10 -8 3
-15 1 -15 -4z"/>
<path d="M3247 1898 c-9 -18 -30 -58 -48 -88 -19 -34 -23 -45 -10 -30 14 16
19 19 15 7 -5 -13 -2 -16 10 -11 12 5 14 10 6 19 -18 22 13 73 42 70 13 -1 15
0 6 2 -22 5 -22 8 -2 38 9 14 12 25 7 25 -5 0 -17 -15 -26 -32z"/>
<path d="M2935 1900 c11 -5 27 -9 35 -9 9 0 8 4 -5 9 -11 5 -27 9 -35 9 -9 0
-8 -4 5 -9z"/>
<path d="M2990 1890 c0 -5 7 -10 16 -10 8 0 12 5 9 10 -3 6 -10 10 -16 10 -5
0 -9 -4 -9 -10z"/>
<path d="M2877 1875 c4 -11 81 -27 91 -19 7 5 -39 24 -67 28 -20 2 -28 -1 -24
-9z"/>
<path d="M3324 1879 c-4 -7 -3 -9 4 -5 5 3 13 0 15 -6 4 -9 6 -10 6 -1 1 17
-16 25 -25 12z"/>
<path d="M3353 1819 c-28 -47 -37 -69 -27 -69 8 0 14 4 14 10 0 5 16 34 35 64
19 30 32 57 27 59 -4 3 -26 -26 -49 -64z"/>
<path d="M2906 1841 c-4 -7 -14 -10 -22 -7 -7 3 -16 1 -19 -4 -4 -6 1 -10 9
-10 9 0 16 -5 16 -10 0 -7 6 -7 18 -2 9 5 23 7 30 5 6 -3 12 0 12 6 0 6 -6 11
-14 11 -8 0 -16 5 -18 12 -3 9 -6 9 -12 -1z"/>
<path d="M2818 1833 c6 -2 18 -2 25 0 6 3 1 5 -13 5 -14 0 -19 -2 -12 -5z"/>
<path d="M3158 1833 c7 -3 16 -2 19 1 4 3 -2 6 -13 5 -11 0 -14 -3 -6 -6z"/>
<path d="M2686 1821 c6 -6 103 -25 192 -37 38 -5 52 -4 52 6 0 7 -6 10 -13 7
-8 -3 -41 1 -75 9 -65 15 -166 25 -156 15z"/>
<path d="M3402 1814 c-7 -8 -10 -14 -7 -14 4 0 -3 -15 -14 -34 -12 -18 -21
-37 -21 -42 0 -5 14 13 31 39 30 48 36 79 11 51z"/>
<path d="M3238 1813 c7 -3 16 -2 19 1 4 3 -2 6 -13 5 -11 0 -14 -3 -6 -6z"/>
<path d="M3845 1801 c-8 -25 -78 -89 -119 -107 -25 -12 -26 -14 -6 -10 14 3
31 6 38 6 7 0 10 5 7 10 -3 6 3 10 15 10 12 0 18 5 15 10 -3 6 2 10 11 10 10
0 14 3 11 6 -4 4 5 20 18 36 14 16 25 34 25 39 0 16 -8 10 -15 -10z"/>
<path d="M3870 1761 c0 -8 -6 -11 -16 -7 -9 3 -12 2 -9 -5 7 -10 -42 -59 -59
-59 -5 0 -7 -2 -4 -5 9 -9 62 15 85 39 14 16 18 28 12 37 -7 11 -9 12 -9 0z"/>
<path d="M3438 1713 c-14 -21 -43 -65 -63 -98 l-37 -59 33 -29 c48 -41 127
-77 171 -77 49 0 150 39 238 91 38 23 70 43 70 44 0 2 -17 1 -37 -2 -21 -2
-53 -5 -70 -6 -22 -1 -33 -7 -34 -17 0 -11 -2 -10 -8 3 -4 10 -9 17 -12 15 -3
-2 -13 3 -22 10 -13 11 -15 10 -10 -7 6 -23 -12 -29 -21 -8 -5 10 -7 10 -12 0
-3 -7 -9 -13 -14 -13 -5 0 -1 18 7 40 13 32 21 40 42 41 14 1 2 5 -27 10 -29
5 -65 16 -80 24 l-27 15 30 -6 c24 -4 21 -1 -15 16 -24 12 -52 28 -61 36 -14
13 -19 10 -41 -23z m169 -205 c-3 -8 -6 -5 -6 6 -1 11 2 17 5 13 3 -3 4 -12 1
-19z"/>
<path d="M210 1706 c0 -2 7 -7 16 -10 8 -3 12 -2 9 4 -6 10 -25 14 -25 6z"/>
<path d="M2345 1684 c-22 -8 -45 -12 -52 -10 -25 10 -13 -4 17 -19 16 -8 58
-18 92 -21 57 -5 61 -4 39 9 -22 13 -22 14 -5 21 18 7 18 8 1 17 -29 17 -50
17 -92 3z"/>
<path d="M217 1669 c7 -7 15 -10 18 -7 3 3 -2 9 -12 12 -14 6 -15 5 -6 -5z"/>
<path d="M3200 1665 c-10 -12 -10 -18 -2 -26 7 -5 10 -6 7 -3 -2 4 0 15 6 25
12 23 6 25 -11 4z"/>
<path d="M3613 1673 c15 -2 37 -2 50 0 12 2 0 4 -28 4 -27 0 -38 -2 -22 -4z"/>
<path d="M845 1659 c-5 -5 -19 -17 -30 -25 -17 -12 -15 -12 13 1 17 8 32 20
32 25 0 12 -2 12 -15 -1z"/>
<path d="M3238 1653 c6 -2 18 -2 25 0 6 3 1 5 -13 5 -14 0 -19 -2 -12 -5z"/>
<path d="M3285 1650 c-3 -5 -1 -10 4 -10 6 0 11 5 11 10 0 6 -2 10 -4 10 -3 0
-8 -4 -11 -10z"/>
<path d="M326 1632 c-2 -4 4 -8 14 -8 10 0 16 4 14 8 -3 4 -9 8 -14 8 -5 0
-11 -4 -14 -8z"/>
<path d="M3995 1630 c-4 -6 -12 -10 -18 -8 -19 3 -118 -52 -112 -62 3 -5 -3
-8 -12 -7 -20 1 -117 -53 -109 -61 3 -2 21 3 40 12 19 9 38 16 43 16 22 0 158
78 171 98 8 12 12 22 9 22 -3 0 -9 -5 -12 -10z"/>
<path d="M3167 1623 c-4 -3 -7 -13 -7 -22 1 -13 3 -13 11 2 11 19 8 33 -4 20z"/>
<path d="M704 1604 c-18 -14 -18 -14 6 -3 31 14 36 19 24 19 -6 0 -19 -7 -30
-16z"/>
<path d="M3223 1562 c-18 -2 -33 -7 -33 -13 0 -13 57 -11 65 2 9 14 6 15 -32
11z"/>
<path d="M2840 1509 c38 -36 45 -39 55 -25 7 9 15 13 18 9 11 -10 8 10 -3 27
-5 8 -10 10 -10 3 0 -8 -9 -8 -35 0 -19 6 -35 14 -35 19 0 4 -8 8 -17 8 -12 0
-3 -13 27 -41z"/>
<path d="M2921 1526 c2 -2 20 -6 39 -10 25 -4 31 -3 20 4 -14 9 -69 15 -59 6z"/>
<path d="M990 1445 c-8 -10 -31 -15 -66 -15 -59 0 -83 -15 -26 -16 120 -2 331
-3 357 -1 l30 2 3 -277 2 -278 -215 -3 -215 -3 217 1 218 0 0 285 0 285 -57 3
c-34 2 -61 9 -68 17 -18 21 -163 21 -180 0z m170 -4 c0 -5 -38 -11 -85 -13
-81 -3 -94 0 -78 15 10 11 163 8 163 -2z"/>
<path d="M4904 1453 c-67 -13 -93 -114 -41 -159 16 -13 35 -24 44 -24 13 0 12
5 -7 25 -19 21 -21 28 -11 38 11 9 14 9 18 0 5 -15 33 -18 33 -4 0 6 -12 16
-27 23 -38 18 -41 52 -8 74 24 16 27 16 45 -1 29 -26 25 -38 -10 -30 -38 8
-38 0 -1 -19 40 -21 44 -41 15 -76 -24 -28 -25 -30 -6 -30 26 0 72 55 72 86 0
40 -27 81 -61 93 -18 6 -32 10 -33 10 -1 -1 -11 -4 -22 -6z"/>
<path d="M6234 1412 c-14 -9 -29 -66 -14 -57 5 3 10 13 10 21 0 8 7 14 15 14
8 0 15 7 15 15 0 16 -9 19 -26 7z"/>
<path d="M1068 1363 c7 -3 16 -2 19 1 4 3 -2 6 -13 5 -11 0 -14 -3 -6 -6z"/>
<path d="M1019 1343 c-13 -17 -13 -17 6 -3 11 8 22 16 24 17 2 2 0 3 -6 3 -6
0 -17 -8 -24 -17z"/>
<path d="M1121 1339 c15 -15 20 -30 17 -54 -2 -19 0 -31 4 -29 23 14 -6 104
-33 104 -5 0 0 -9 12 -21z"/>
<path d="M1059 1324 c-12 -15 -11 -19 9 -32 28 -18 29 -36 1 -29 -16 4 -19 3
-11 -5 14 -14 42 -3 42 16 0 8 -9 18 -21 21 -21 7 -21 32 0 27 7 -1 10 2 6 8
-8 13 -10 13 -26 -6z"/>
<path d="M1326 1322 c-3 -5 1 -9 9 -9 8 0 12 4 9 9 -3 4 -7 8 -9 8 -2 0 -6 -4
-9 -8z"/>
<path d="M1328 1153 c4 -177 22 -202 22 -33 0 69 3 135 6 148 5 17 2 22 -12
22 -18 0 -19 -9 -16 -137z"/>
<path d="M1000 1274 c0 -6 7 -19 16 -30 14 -18 14 -18 3 6 -14 31 -19 36 -19
24z"/>
<path d="M1105 1230 c-3 -6 1 -7 9 -4 18 7 21 14 7 14 -6 0 -13 -4 -16 -10z"/>
<path d="M4471 1131 c-10 -6 -9 -10 3 -14 8 -3 18 -2 21 3 8 13 -9 20 -24 11z"/>
<path d="M3961 1069 c13 -19 27 -25 64 -27 32 -2 51 1 56 10 6 10 12 8 23 -7
15 -20 15 -20 16 1 0 18 -7 22 -52 27 -29 3 -69 9 -88 13 l-35 7 16 -24z"/>
<path d="M3561 1045 c-24 -8 -66 -29 -93 -47 -50 -33 -116 -124 -296 -413
-100 -158 -249 -388 -267 -410 -9 -11 -25 -37 -36 -57 -11 -21 -24 -38 -29
-38 -6 0 -10 -6 -10 -13 0 -8 -9 -22 -20 -32 -28 -25 -25 -35 9 -35 23 0 31 5
34 23 l4 22 2 -22 1 -23 25 22 c18 15 25 32 25 56 0 22 4 32 12 30 7 -3 23 8
36 24 14 16 34 28 48 28 30 0 32 17 2 23 -22 4 -22 4 2 6 17 1 30 11 40 33 15
32 65 64 109 71 14 2 27 9 28 14 3 8 -8 8 -34 3 -23 -6 -42 -5 -47 0 -7 7 -5
10 3 10 8 0 11 6 7 16 -3 8 -2 12 4 9 6 -3 10 0 10 8 0 16 73 66 103 71 20 3
47 32 47 50 0 6 -8 1 -18 -11 -12 -17 -21 -20 -32 -13 -13 8 -12 10 4 10 11 0
16 5 13 14 -6 15 25 50 35 40 3 -3 5 3 5 13 -1 11 6 19 18 21 24 3 29 11 175
257 62 105 121 205 132 223 22 37 17 38 -51 17z"/>
<path d="M4140 1047 c0 -18 17 -21 305 -47 127 -11 311 -29 410 -39 99 -10
186 -15 194 -11 20 11 -15 17 -199 35 -85 9 -216 22 -290 31 -74 8 -182 20
-240 25 -58 5 -122 12 -142 15 -30 5 -38 3 -38 -9z"/>
<path d="M1330 974 c0 -8 5 -12 10 -9 6 3 10 10 10 16 0 5 -4 9 -10 9 -5 0
-10 -7 -10 -16z"/>
<path d="M5100 950 c-8 -5 -10 -10 -5 -10 6 0 51 -4 100 -10 50 -5 128 -12
175 -15 47 -3 92 -8 100 -10 8 -2 165 -18 349 -35 242 -23 341 -29 360 -21 14
5 35 12 46 14 11 3 -5 5 -35 6 -31 0 -139 8 -240 16 -102 9 -239 20 -305 25
-66 5 -212 19 -325 30 -113 11 -205 20 -205 20 0 0 -7 -5 -15 -10z"/>
<path d="M2473 759 c-23 -7 -33 -16 -33 -29 0 -20 0 -20 38 -1 61 33 70 41 47
40 -11 0 -35 -5 -52 -10z"/>
<path d="M748 725 c-45 -30 -77 -71 -119 -155 -17 -36 -69 -119 -114 -185 -45
-66 -108 -158 -140 -205 -32 -47 -61 -87 -64 -90 -4 -3 -21 -24 -40 -47 l-33
-43 767 0 766 0 -67 128 c-37 70 -73 136 -80 147 -8 11 -14 26 -14 33 0 16
-53 125 -104 215 -38 67 -111 145 -165 175 l-38 22 -110 -64 -109 -63 -134 79
c-74 43 -141 78 -150 77 -8 0 -32 -11 -52 -24z"/>
<path d="M2590 720 c-13 -8 -13 -10 2 -10 9 0 20 5 23 10 8 13 -5 13 -25 0z"/>
<path d="M2163 563 c-3 -7 -15 -13 -27 -13 -17 0 -18 2 -6 10 8 5 11 10 5 10
-5 0 -16 -4 -24 -9 -11 -7 -10 -11 6 -19 15 -9 28 -6 59 13 32 20 35 24 15 22
-13 -1 -26 -7 -28 -14z"/>
<path d="M2277 569 c-10 -6 -21 -8 -24 -5 -3 3 -27 -6 -54 -19 -56 -29 -70
-30 -107 -12 -15 8 -38 11 -52 7 -14 -3 -50 -2 -80 2 -69 9 -121 1 -113 -18 3
-9 -2 -14 -13 -14 -14 0 -15 -3 -6 -12 7 -7 12 -18 12 -25 0 -18 -51 -68 -118
-117 -29 -21 -51 -40 -48 -43 2 -3 28 0 58 6 29 6 100 10 158 9 103 -3 107 -2
183 34 43 21 92 47 108 58 25 18 129 37 219 40 11 0 9 4 -5 12 -11 6 -23 16
-27 22 -7 11 8 47 20 44 4 -1 15 2 26 7 16 7 14 10 -14 21 -38 17 -98 18 -123
3z m33 -19 c0 -5 -2 -10 -4 -10 -3 0 -8 5 -11 10 -3 6 -1 10 4 10 6 0 11 -4
11 -10z"/>
</g>
</svg>
